<svg width="20" height="20" viewBox="0 0 20 20" fill="none" xmlns="http://www.w3.org/2000/svg">
<g clip-path="url(#clip0_11_552)">
<path d="M9.92833 0C4.85 0 5.16667 2.21333 5.16667 2.21333L5.1725 4.50667H10.0175V5.195H3.25C3.25 5.195 0 4.82417 0 9.97417C0 15.1242 2.83583 14.9408 2.83583 14.9408H4.5275V12.5517C4.5275 12.5517 4.43667 9.70167 7.31917 9.70167H12.1242C12.1242 9.70167 14.8242 9.745 14.8242 7.07833V2.66833C14.8242 2.66833 15.2333 0 9.9275 0H9.92833ZM7.25667 1.54167C7.73833 1.54167 8.12833 1.93333 8.12833 2.41833C8.12833 2.9025 7.73833 3.29417 7.25667 3.29417C6.77417 3.29417 6.385 2.9025 6.385 2.41833C6.385 1.93333 6.77417 1.54167 7.25667 1.54167Z" fill="white"/>
<path d="M10.0725 20C15.1492 20 14.8325 17.7867 14.8325 17.7867L14.8267 15.4933H9.98166V14.805H16.7508C16.7508 14.805 20.0008 15.1758 20.0008 10.0258C20.0008 4.87583 17.1642 5.05916 17.1642 5.05916H15.4725V7.44833C15.4725 7.44833 15.5633 10.2983 12.6808 10.2983H7.87666C7.87666 10.2983 5.17666 10.255 5.17666 12.9217V17.3317C5.17666 17.3317 4.76666 20 10.0725 20ZM12.7442 18.4583C12.2617 18.4583 11.8725 18.0667 11.8725 17.5817C11.8725 17.0975 12.2617 16.7058 12.7442 16.7058C13.2258 16.7058 13.6158 17.0975 13.6158 17.5817C13.6158 18.0667 13.2258 18.4583 12.7442 18.4583Z" fill="white"/>
</g>
<defs>
<clipPath id="clip0_11_552">
<rect width="20" height="20" fill="white"/>
</clipPath>
</defs>
</svg>
