<svg width="20" height="20" viewBox="0 0 20 20" fill="none" xmlns="http://www.w3.org/2000/svg">
<g clip-path="url(#clip0_11_522)">
<path d="M10 4.58337C4.3925 4.58337 0 6.96254 0 10C0 13.0375 4.3925 15.4167 10 15.4167C15.6075 15.4167 20 13.0375 20 10C20 6.96254 15.6075 4.58337 10 4.58337ZM8.96167 6.25004H10.0533L9.70667 7.91671H10.6817C11.3 7.91671 11.715 8.00337 11.9517 8.21921C12.1825 8.43254 12.2525 8.78254 12.16 9.25921L11.7267 11.25H10.6167L11.0158 9.40921C11.0642 9.15671 11.045 8.98087 10.96 8.88837C10.8758 8.79587 10.69 8.75004 10.4117 8.75004H9.5375L9.01 11.25H7.91667L8.96167 6.25004ZM4.16667 7.91671H6.38833C7.4475 7.91671 8.08917 8.62671 7.83833 9.68587C7.54667 10.9167 6.76667 11.25 5.33 11.25H4.64333L4.42583 12.5H3.32167L4.16667 7.91671ZM12.9167 7.91671H15.1383C16.1975 7.91671 16.8392 8.62671 16.5883 9.68587C16.2967 10.9167 15.5158 11.25 14.08 11.25H13.3933L13.1758 12.5H12.0717L12.9167 7.91671ZM5.1125 8.75004L4.79833 10.4167H5.51083C6.1275 10.4167 6.70083 10.3467 6.79667 9.42671C6.8325 9.07087 6.68417 8.75004 5.97167 8.75004H5.1125ZM13.8625 8.75004L13.5483 10.4167H14.2608C14.8775 10.4167 15.4508 10.3467 15.5467 9.42671C15.5825 9.07087 15.435 8.75004 14.7217 8.75004H13.8625Z" fill="white"/>
</g>
<defs>
<clipPath id="clip0_11_522">
<rect width="20" height="20" fill="white"/>
</clipPath>
</defs>
</svg>
