<svg width="20" height="20" viewBox="0 0 20 20" fill="none" xmlns="http://www.w3.org/2000/svg">
<g clip-path="url(#clip0_11_514)">
<path fill-rule="evenodd" clip-rule="evenodd" d="M10.0125 10.5906L9.68188 11.6156H9.18937L10.0125 9.04875V4.96563H14.6025L13.7294 14.5844L10.0125 15.5856V10.5906ZM10 20C4.47688 20 0 15.5231 0 10C0 4.47688 4.47688 0 10 0C15.5231 0 20 4.47688 20 10C20 15.5231 15.5231 20 10 20ZM5.3975 15.2931L9.9875 16.5625L14.6025 15.2931L15.625 4.0625H4.375L5.3975 15.2931ZM8.62437 11.0475L6.42062 10.1525V9.7825L8.62437 8.88688V9.35063L7.08125 9.96938L8.625 10.5844L8.62437 11.0475ZM13.5825 10.1525V9.7825L11.3781 8.88688V9.35063L12.9219 9.9675L11.3781 10.5844V11.0475L13.5825 10.1525ZM10.0125 10.59L10.7 8.45687H10.2025L10.0125 9.04875V10.59Z" fill="white"/>
</g>
<defs>
<clipPath id="clip0_11_514">
<rect width="20" height="20" fill="white"/>
</clipPath>
</defs>
</svg>
