<svg width="20" height="20" viewBox="0 0 20 20" fill="none" xmlns="http://www.w3.org/2000/svg">
<g clip-path="url(#clip0_11_545)">
<path fill-rule="evenodd" clip-rule="evenodd" d="M6.72066 4.21906H8.80402L11.7998 14.2558H9.99023L9.24508 11.3969H6.32531L5.56492 14.2559H3.96816L6.7207 4.69051V4.21906H6.72066ZM8.83445 9.9218L7.80035 5.67891L6.73586 9.92172H8.83445V9.9218ZM14.9021 6.7968H13.2598V14.2559H14.9021V6.79688V6.7968ZM14.0598 3.89887C13.5277 3.89887 13.0964 4.32523 13.0964 4.85121C13.0964 5.37719 13.5277 5.80359 14.0598 5.80359C14.5918 5.80359 15.0232 5.37723 15.0232 4.85125C15.0232 4.32527 14.5919 3.89887 14.0598 3.89887ZM20 20H0V0H20V20Z" fill="white"/>
</g>
<defs>
<clipPath id="clip0_11_545">
<rect width="20" height="20" fill="white"/>
</clipPath>
</defs>
</svg>
