<svg width="20" height="20" viewBox="0 0 20 20" fill="none" xmlns="http://www.w3.org/2000/svg">
<path d="M5.35126 9.535C6.84377 10.0596 8.4183 10.3121 10 10.2806C11.5818 10.3119 13.1563 10.0592 14.6488 9.53438C15.8138 9.08 16.2269 8.575 16.2269 8.28438V6.0625C15.8196 6.33526 15.3826 6.56087 14.9244 6.735C13.3453 7.30044 11.6771 7.57611 10 7.54875C8.32309 7.5756 6.65504 7.30037 5.07563 6.73625C4.61718 6.56211 4.18016 6.33606 3.77313 6.0625V8.28125C3.77313 8.5775 4.18751 9.08 5.35126 9.535ZM5.35126 13.7256C5.87851 13.9267 6.42222 14.0817 6.97626 14.1888C7.97253 14.3815 8.98527 14.4763 10 14.4719C11.0147 14.4765 12.0275 14.3819 13.0238 14.1894C13.5778 14.0823 14.1215 13.9273 14.6488 13.7263C15.8138 13.2719 16.2269 12.7669 16.2269 12.4763V10.3575C15.8902 10.5601 15.5363 10.7326 15.1694 10.8731C13.5105 11.4605 11.7595 11.7448 10 11.7125C8.24031 11.7438 6.48933 11.4584 4.83063 10.87C4.46383 10.7291 4.11 10.5566 3.77313 10.3544V12.475C3.77313 12.7662 4.18751 13.2694 5.35126 13.7256ZM10 18.75C13.4375 18.75 16.2269 17.66 16.2269 16.3163V14.5431C15.9206 14.7277 15.5997 14.887 15.2675 15.0194L15.1694 15.0588C13.5108 15.6478 11.7598 15.9339 10 15.9031C8.24013 15.9347 6.48898 15.6487 4.83063 15.0588C4.79688 15.0463 4.76438 15.0319 4.73251 15.0194C4.40027 14.887 4.07941 14.7277 3.77313 14.5431V16.3163C3.77313 17.66 6.56251 18.75 10 18.75Z" fill="white"/>
<path d="M10 6.1175C13.439 6.1175 16.2269 5.02787 16.2269 3.68375C16.2269 2.33963 13.439 1.25 10 1.25C6.561 1.25 3.77313 2.33963 3.77313 3.68375C3.77313 5.02787 6.561 6.1175 10 6.1175Z" fill="white"/>
</svg>
