<svg width="20" height="20" viewBox="0 0 20 20" fill="none" xmlns="http://www.w3.org/2000/svg">
<path d="M10 11.5463C10.8629 11.5463 11.5625 10.8467 11.5625 9.98376C11.5625 9.12082 10.8629 8.42126 10 8.42126C9.13706 8.42126 8.4375 9.12082 8.4375 9.98376C8.4375 10.8467 9.13706 11.5463 10 11.5463Z" fill="white"/>
<path d="M10 13.5663C8.12196 13.6117 6.24862 13.3586 4.45 12.8163C3.61914 12.5529 2.84421 12.138 2.16438 11.5925C1.90496 11.4062 1.68892 11.1659 1.53109 10.8883C1.37326 10.6106 1.27737 10.302 1.25 9.9838C1.25 8.95067 2.385 7.93817 4.28625 7.27567C6.13296 6.68864 8.06245 6.40413 10 6.43317C11.9117 6.40646 13.8153 6.68583 15.6387 7.26067C16.4389 7.51577 17.1876 7.91062 17.85 8.42692C18.105 8.60457 18.3178 8.83612 18.4733 9.10517C18.6288 9.37422 18.7233 9.67418 18.75 9.9838C18.75 11.0575 17.4813 12.1457 15.4375 12.8219C13.6737 13.3465 11.8399 13.5976 10 13.5663V13.5663ZM10 7.18067C8.14632 7.15589 6.30052 7.42636 4.53187 7.98192C2.78187 8.59255 1.9975 9.42754 1.9975 9.98192C1.9975 10.5619 2.84063 11.4738 4.69187 12.1069C6.41255 12.6231 8.20413 12.8633 10 12.8188C11.7603 12.8503 13.515 12.6121 15.2031 12.1125C17.125 11.4757 18 10.5625 18 9.9838C17.9685 9.78519 17.8961 9.59528 17.7874 9.42606C17.6788 9.25684 17.5362 9.112 17.3688 9.00067C16.7761 8.54264 16.1073 8.19269 15.3931 7.96692C13.6488 7.41927 11.8281 7.15384 10 7.18067V7.18067Z" fill="white"/>
<path d="M6.45 17.7769C6.15844 17.7836 5.87032 17.7129 5.615 17.5719C4.72 17.0557 4.41 15.5669 4.78563 13.5888C5.19978 11.6957 5.91738 9.8821 6.91063 8.21817C7.84233 6.54886 9.03511 5.03937 10.4437 3.74692C11.0645 3.18111 11.7805 2.72976 12.5588 2.41379C12.8402 2.28188 13.1473 2.2135 13.4581 2.2135C13.769 2.2135 14.076 2.28188 14.3575 2.41379C15.2881 2.95004 15.5963 4.59254 15.1619 6.70067C14.7349 8.49102 14.036 10.2053 13.0894 11.7838C12.1905 13.4334 11.0352 14.9297 9.66688 16.2169C9.02362 16.8049 8.27708 17.2688 7.465 17.585C7.13989 17.7057 6.79673 17.7706 6.45 17.7769V17.7769ZM7.55813 8.58942C6.61069 10.1827 5.92291 11.9167 5.52063 13.7263C5.175 15.5482 5.50688 16.6438 5.98938 16.9225C6.48938 17.2119 7.70313 16.9375 9.17688 15.65C10.4831 14.4169 11.5858 12.9845 12.4438 11.4063C13.3506 9.89724 14.0211 8.25826 14.4319 6.54629C14.8406 4.56192 14.4875 3.34692 13.9863 3.05817C13.7984 2.98619 13.5976 2.95396 13.3967 2.96354C13.1957 2.97311 12.9989 3.02428 12.8188 3.11379C12.1261 3.39964 11.4892 3.80544 10.9375 4.31254C9.59167 5.55054 8.45231 6.99563 7.5625 8.59317L7.55813 8.58942Z" fill="white"/>
<path d="M13.5482 17.785C12.7013 17.785 11.6257 17.2725 10.5057 16.3094C9.07234 15.0052 7.85939 13.4777 6.91378 11.7862C5.93299 10.1452 5.22107 8.35783 4.80503 6.49186C4.6246 5.67092 4.59116 4.82448 4.70628 3.99186C4.73289 3.68299 4.82694 3.38372 4.9818 3.11515C5.13665 2.84658 5.34855 2.61526 5.60253 2.43749C6.5319 1.89936 8.10878 2.45249 9.71815 3.88124C11.056 5.1451 12.1921 6.60668 13.0869 8.21499C14.0671 9.8177 14.7865 11.5659 15.2182 13.3944C15.4064 14.2454 15.4354 15.124 15.3038 15.9856C15.2725 16.3034 15.1728 16.6106 15.0116 16.8862C14.8505 17.1619 14.6316 17.3994 14.37 17.5825C14.1189 17.7217 13.8352 17.7916 13.5482 17.785V17.785ZM7.56065 11.41C8.4678 13.0265 9.62646 14.4883 10.9932 15.7406C12.3988 16.95 13.5138 17.21 13.9932 16.9281C14.4932 16.6375 14.8619 15.4512 14.4819 13.5319C14.0656 11.7862 13.3756 10.1174 12.4375 8.58749C11.5837 7.04819 10.4992 5.64865 9.2219 4.43749C7.7069 3.09249 6.47815 2.79186 5.97753 3.08186C5.82149 3.20866 5.69345 3.36644 5.60147 3.54523C5.50949 3.72402 5.45559 3.91994 5.44315 4.12061C5.34378 4.86317 5.37615 5.61743 5.53878 6.34874C5.93897 8.1332 6.62174 9.84225 7.56128 11.4112L7.56065 11.41Z" fill="white"/>
</svg>
