<svg width="80" height="80" viewBox="0 0 80 80" fill="none" xmlns="http://www.w3.org/2000/svg">
<path d="M39.5294 78.1176C18.7377 78.1176 1.88232 61.2622 1.88232 40.4706C1.88232 19.6789 18.7377 2.82352 39.5294 2.82352C60.321 2.82352 77.1764 19.6789 77.1764 40.4706C77.1764 61.2622 60.321 78.1176 39.5294 78.1176Z" fill="url(#paint0_linear_19_2)"/>
<path d="M56.2729 56.9087C55.5012 56.2625 54.6625 55.9404 53.7589 55.9404L43.1508 55.9508V55.9602H38.9678V55.9508L38.0214 55.9519C37.0196 55.9634 36.1338 55.5859 35.3631 54.8204L29.5027 47.9927C28.64 47.0525 28.2102 45.7474 28.2133 44.0763L28.1935 25.8646C28.1924 24.9244 28.5438 24.1276 29.2486 23.474C29.9524 22.8204 30.8078 22.4931 31.8149 22.492L46.5746 22.4763C48.3765 22.4167 50.241 23.9372 50.2034 25.761C50.2159 29.7317 50.2003 36.5616 50.2097 40.4967L42.7346 40.5051C40.6682 40.4225 32.9966 40.5542 32.6944 40.5846C31.6131 40.618 33.2758 42.1082 35.0996 44.3493C35.5012 44.8314 35.8264 45.2329 36.0408 45.4996C37.1116 46.9668 37.714 46.9887 40.6421 47.0682C41.5655 47.1289 56.1025 47.0766 57.4337 47.0839C57.4055 42.9333 57.4389 34.4805 57.4243 30.3697C57.3668 25.7997 58.0925 22.3331 54.2379 18.8497C52.1192 16.9192 49.5728 15.9571 46.5976 15.9602L31.9236 15.977C28.9202 15.9801 26.354 16.9495 24.2248 18.8842C22.0957 20.8188 21.0332 23.1435 21.0353 25.8593L21.0541 44.0721C21.0572 47.3359 22.0183 50.0894 23.9372 52.3336L30.6844 60.1391H30.7775C32.5187 61.6774 35.1738 62.7242 37.5446 62.6855L38.9678 62.6834V62.6489H43.1508V62.6834L53.7725 62.6708C54.7901 62.6698 55.6549 62.3446 56.3671 61.6972C57.8259 60.4455 57.784 58.1009 56.2729 56.9087Z" fill="url(#paint1_radial_19_2)"/>
<defs>
<linearGradient id="paint0_linear_19_2" x1="12.3577" y1="81.4603" x2="65.2142" y2="1.72382" gradientUnits="userSpaceOnUse">
<stop stop-color="#00568F"/>
<stop offset="1" stop-color="#0098FF"/>
</linearGradient>
<radialGradient id="paint1_radial_19_2" cx="0" cy="0" r="1" gradientUnits="userSpaceOnUse" gradientTransform="translate(21.2287 56.4789) scale(52.5899 52.5899)">
<stop stop-color="white"/>
<stop offset="0.9945" stop-color="white"/>
</radialGradient>
</defs>
</svg>
