<svg width="41" height="41" viewBox="0 0 41 41" fill="none" xmlns="http://www.w3.org/2000/svg">
<path d="M36.6071 0H4.39286C1.96763 0 0 1.96763 0 4.39286V36.6071C0 39.0324 1.96763 41 4.39286 41H36.6071C39.0324 41 41 39.0324 41 36.6071V4.39286C41 1.96763 39.0324 0 36.6071 0ZM15.0089 29.6518C9.94799 29.6518 5.85714 25.5609 5.85714 20.5C5.85714 15.4391 9.94799 11.3482 15.0089 11.3482C17.4799 11.3482 19.5391 12.2451 21.1406 13.746L18.6605 16.1346C17.9833 15.4848 16.8027 14.7252 15.0181 14.7252C11.8973 14.7252 9.35312 17.306 9.35312 20.5092C9.35312 23.7031 11.8973 26.2931 15.0181 26.2931C18.6422 26.2931 19.9967 23.6848 20.2163 22.3487H15.0089V19.2004H23.6482C23.7397 19.658 23.7946 20.1248 23.7946 20.7196C23.7946 25.9453 20.2895 29.6518 15.0089 29.6518V29.6518ZM35.1429 22.1656H32.4888V24.8196H29.8165V22.1656H27.1625V19.4933H29.8165V16.8393H32.4888V19.4933H35.1429V22.1656Z" fill="url(#paint0_linear_79_13)"/>
<defs>
<linearGradient id="paint0_linear_79_13" x1="20.5" y1="0" x2="20.5" y2="41" gradientUnits="userSpaceOnUse">
<stop stop-color="#0099FF"/>
<stop offset="1" stop-color="#007ACC"/>
</linearGradient>
</defs>
</svg>
