<svg width="41" height="41" viewBox="0 0 41 41" fill="none" xmlns="http://www.w3.org/2000/svg">
<path d="M38.7447 2.25532C37.2405 0.751089 35.4305 0 33.3126 0H7.68737C5.56955 0 3.75955 0.751089 2.25532 2.25532C0.751089 3.75955 0 5.56955 0 7.68737V33.3126C0 35.4305 0.751089 37.2405 2.25532 38.7447C3.75955 40.2489 5.56955 41 7.68737 41H13.6674C14.0573 41 14.3507 40.9856 14.5477 40.959C14.7769 40.913 14.9838 40.7908 15.1346 40.6121C15.3296 40.4069 15.4281 40.1094 15.4281 39.7195L15.4137 37.9033C15.4055 36.7459 15.4014 35.8306 15.4014 35.1534L14.7858 35.2601C14.3959 35.3319 13.9033 35.3627 13.3062 35.3545C12.6837 35.343 12.0633 35.2806 11.451 35.1678C10.7993 35.0474 10.1857 34.773 9.66155 34.3674C9.11258 33.9521 8.70313 33.3795 8.48771 32.7257L8.22093 32.1101C7.99607 31.6244 7.71358 31.1676 7.37955 30.7495C6.99785 30.2508 6.60999 29.9143 6.21803 29.7357L6.03334 29.6023C5.90455 29.5101 5.78741 29.4026 5.68447 29.2822C5.58615 29.1704 5.50521 29.0445 5.44437 28.9087C5.39101 28.7835 5.43616 28.6809 5.57776 28.6009C5.72141 28.5188 5.97793 28.4798 6.35347 28.4798L6.88703 28.5619C7.24205 28.6317 7.68327 28.8451 8.20657 29.2001C8.73615 29.5612 9.17853 30.0358 9.50148 30.5894C9.91191 31.3179 10.4044 31.8741 10.9831 32.2578C11.5618 32.6395 12.1447 32.8324 12.7316 32.8324C13.3185 32.8324 13.8254 32.7873 14.2543 32.699C14.669 32.6133 15.0721 32.4782 15.4548 32.2968C15.6148 31.1066 16.0499 30.1872 16.762 29.5469C15.8393 29.4565 14.9248 29.2959 14.0265 29.0667C13.1498 28.8259 12.3066 28.4764 11.5167 28.0263C10.6902 27.5763 9.96014 26.9683 9.36809 26.2368C8.79964 25.5247 8.33175 24.591 7.96646 23.4356C7.60323 22.2782 7.42059 20.9422 7.42059 19.4298C7.42059 17.2771 8.12243 15.4445 9.52815 13.93C8.87147 12.3129 8.93303 10.4968 9.7149 8.48771C10.232 8.32559 10.9975 8.44667 12.0113 8.84684C13.025 9.24701 13.7679 9.58972 14.2399 9.87292C14.7119 10.1602 15.0895 10.4003 15.3747 10.5953C17.0431 10.131 18.7672 9.8976 20.499 9.90165C22.2618 9.90165 23.9692 10.1335 25.6253 10.5953L26.639 9.955C27.4188 9.48681 28.2413 9.09376 29.0955 8.78117C30.0394 8.42409 30.7577 8.32764 31.2584 8.48771C32.0588 10.4988 32.1285 12.3129 31.4698 13.9321C32.8755 15.4445 33.5794 17.2771 33.5794 19.4319C33.5794 20.9443 33.3968 22.2843 33.0315 23.4479C32.6683 24.6135 32.1963 25.5473 31.6175 26.2512C31.0151 26.9733 30.282 27.5755 29.4566 28.0263C28.5947 28.5065 27.7574 28.8533 26.9468 29.0667C26.0486 29.2967 25.1341 29.4579 24.2113 29.549C25.1348 30.3493 25.5986 31.6114 25.5986 33.3373V39.7195C25.5986 40.0211 25.6417 40.2653 25.732 40.4521C25.7735 40.542 25.8327 40.6227 25.906 40.6894C25.9793 40.756 26.0653 40.8072 26.1588 40.8399C26.3558 40.9097 26.5282 40.9549 26.6801 40.9713C26.8319 40.9918 27.0495 40.9979 27.3327 40.9979H33.3126C35.4305 40.9979 37.2405 40.2469 38.7447 38.7426C40.2469 37.2405 41 35.4284 41 33.3106V7.68737C41 5.56955 40.2469 3.75955 38.7426 2.25532H38.7447Z" fill="url(#paint0_linear_79_17)"/>
<defs>
<linearGradient id="paint0_linear_79_17" x1="20.5" y1="0" x2="20.5" y2="41" gradientUnits="userSpaceOnUse">
<stop stop-color="#0099FF"/>
<stop offset="1" stop-color="#007ACC"/>
</linearGradient>
</defs>
</svg>
