<svg width="41" height="41" viewBox="0 0 41 41" fill="none" xmlns="http://www.w3.org/2000/svg">
<path fill-rule="evenodd" clip-rule="evenodd" d="M5.0702e-07 3.42537C5.0702e-07 2.51691 0.360886 1.64565 1.00327 1.00327C1.64565 0.36089 2.5169 4.56649e-06 3.42536 4.56649e-06H37.5709C38.0211 -0.000730734 38.467 0.08734 38.8832 0.259174C39.2993 0.431009 39.6774 0.683232 39.996 1.0014C40.3145 1.31958 40.5671 1.69745 40.7394 2.11339C40.9117 2.52932 41.0002 2.97516 41 3.42537V37.5709C41.0005 38.0212 40.9122 38.4672 40.7401 38.8833C40.5681 39.2995 40.3157 39.6776 39.9974 39.9961C39.6791 40.3146 39.3011 40.5672 38.885 40.7394C38.469 40.9117 38.0231 41.0002 37.5728 41H3.42536C2.97538 41 2.52981 40.9113 2.1141 40.7391C1.6984 40.5668 1.32071 40.3143 1.00261 39.9961C0.684508 39.6778 0.432237 39.3 0.260206 38.8842C0.0881747 38.4684 -0.000244315 38.0228 5.0702e-07 37.5728V3.42537ZM16.2285 15.6322H21.7803V18.4202C22.5817 16.8175 24.6317 15.375 27.7123 15.375C33.6181 15.375 35.0177 18.5674 35.0177 24.4248V35.2749H29.041V25.7592C29.041 22.4233 28.2397 20.541 26.2046 20.541C23.3812 20.541 22.2071 22.5705 22.2071 25.7592V35.2749H16.2285V15.6322ZM5.97855 35.0196H11.9571V15.375H5.97855V35.0177V35.0196ZM12.8125 8.96782C12.8238 9.47971 12.7327 9.9887 12.5446 10.4649C12.3565 10.9411 12.0752 11.375 11.7171 11.741C11.3591 12.107 10.9315 12.3978 10.4596 12.5963C9.98762 12.7949 9.48076 12.8971 8.96875 12.8971C8.45674 12.8971 7.94988 12.7949 7.47793 12.5963C7.00597 12.3978 6.57843 12.107 6.22039 11.741C5.86235 11.375 5.58102 10.9411 5.39292 10.4649C5.20482 9.9887 5.11373 9.47971 5.125 8.96782C5.14713 7.96305 5.56181 7.00689 6.28024 6.3041C6.99867 5.60131 7.96374 5.20778 8.96875 5.20778C9.97377 5.20778 10.9388 5.60131 11.6573 6.3041C12.3757 7.00689 12.7904 7.96305 12.8125 8.96782V8.96782Z" fill="url(#paint0_linear_79_15)"/>
<defs>
<linearGradient id="paint0_linear_79_15" x1="20.5" y1="0" x2="20.5" y2="41" gradientUnits="userSpaceOnUse">
<stop stop-color="#0099FF"/>
<stop offset="1" stop-color="#007ACC"/>
</linearGradient>
</defs>
</svg>
