<svg width="41" height="41" viewBox="0 0 41 41" fill="none" xmlns="http://www.w3.org/2000/svg">
<g clip-path="url(#clip0_4_259)">
<path d="M26.792 0H14.2063C2.72116 0 -0.00149536 2.72266 -0.00149536 14.2078V26.7935C-0.00149536 38.2786 2.72116 41.0013 14.2063 41.0013H26.792C38.2771 41.0013 40.9998 38.2786 40.9998 26.7935V14.2078C40.9998 2.72266 38.2502 0 26.792 0ZM33.0983 29.2484H30.122C28.9945 29.2484 28.6473 28.3541 26.619 26.2989C24.8573 24.591 24.077 24.3643 23.6427 24.3643C23.029 24.3643 22.8547 24.5372 22.8547 25.379V28.0683C22.8547 28.7897 22.6279 29.2228 20.7189 29.2228C17.5619 29.2228 14.0589 27.3137 11.6028 23.7569C7.89869 18.5448 6.88522 14.6408 6.88522 13.8337C6.88522 13.3993 7.05819 12.9932 7.89229 12.9932H10.875C11.6297 12.9932 11.9167 13.3404 12.2101 14.1476C13.6848 18.4052 16.141 22.1349 17.1544 22.1349C17.5286 22.1349 17.7015 21.9619 17.7015 21.0074V16.6101C17.5875 14.5819 16.5202 14.4077 16.5202 13.6876C16.5202 13.3404 16.8072 12.9932 17.2672 12.9932H21.9578C22.5921 12.9932 22.8253 13.3404 22.8253 14.0873V20.0195C22.8253 20.6602 23.1123 20.8869 23.2852 20.8869C23.6593 20.8869 23.9797 20.6602 24.6728 19.9657C26.8151 17.5634 28.35 13.8593 28.35 13.8593C28.5499 13.4249 28.8971 13.0188 29.6518 13.0188H32.6345C33.5288 13.0188 33.7287 13.4788 33.5288 14.1194C33.1547 15.8542 29.5044 21.0061 29.5044 21.0061C29.1905 21.5263 29.0701 21.7531 29.5044 22.3335C29.8247 22.7678 30.8664 23.6685 31.5595 24.4757C32.8344 25.9235 33.8145 27.1382 34.0759 27.9787C34.3693 28.8127 33.9363 29.2471 33.0945 29.2471L33.0983 29.2484Z" fill="url(#paint0_linear_4_259)"/>
</g>
<defs>
<linearGradient id="paint0_linear_4_259" x1="20.4991" y1="0" x2="20.4991" y2="41.0013" gradientUnits="userSpaceOnUse">
<stop stop-color="#0099FF"/>
<stop offset="1" stop-color="#007ACC"/>
</linearGradient>
<clipPath id="clip0_4_259">
<rect width="41" height="41" fill="white"/>
</clipPath>
</defs>
</svg>
