<svg width="41" height="41" viewBox="0 0 41 41" fill="none" xmlns="http://www.w3.org/2000/svg">
<path d="M40.9795 9.32182C40.9624 8.44227 40.8919 7.56457 40.7683 6.69358C40.6211 5.91885 40.3708 5.16732 40.0242 4.45897C39.2654 2.96097 38.049 1.74377 36.5515 0.984049C35.8477 0.639043 35.1011 0.389463 34.3313 0.241912C33.4537 0.115795 32.5692 0.0439051 31.6827 0.0266514C31.3076 0.0123006 30.8217 0.00615035 30.5962 0.00615035L10.4079 0C10.1824 0 9.6965 0.00615029 9.32135 0.020501C8.44184 0.0374484 7.56418 0.107966 6.69325 0.231661C5.91856 0.37894 5.16706 0.629224 4.45875 0.975849C2.9609 1.7348 1.7438 2.95125 0.984 4.44872C0.639101 5.15255 0.389538 5.89921 0.2419 6.66898C0.115217 7.5466 0.0426464 8.43118 0.0246002 9.31772C0.0123002 9.69288 0.00410019 10.1788 0.00410019 10.4043L0 30.5937C0 30.8192 0.00614998 31.3051 0.0205 31.6802C0.0374465 32.5598 0.10796 33.4375 0.23165 34.3085C0.378945 35.0832 0.629215 35.8347 0.9758 36.5431C1.73471 38.041 2.9511 39.2582 4.4485 40.018C5.15231 40.3629 5.89893 40.6124 6.66865 40.7601C7.54625 40.8863 8.4308 40.9582 9.31725 40.9754C9.6924 40.9897 10.1782 40.9959 10.4037 40.9959L30.5921 41C30.8176 41 31.3035 40.9938 31.6786 40.9795C32.5582 40.9625 33.4358 40.892 34.3068 40.7683C35.0814 40.621 35.8329 40.3707 36.5413 40.0242C38.0399 39.2656 39.2577 38.0491 40.018 36.5513C40.363 35.8475 40.6126 35.1008 40.7601 34.331C40.8869 33.4534 40.9595 32.5688 40.9774 31.6823C40.9897 31.3071 40.998 30.8212 40.998 30.5957L41 10.4084C41 10.1829 40.9938 9.69698 40.9795 9.32182ZM20.9448 34.7636H20.9387C18.4985 34.7631 16.0973 34.1513 13.9544 32.9841L6.20535 35.0158L8.27995 27.4447C6.67368 24.6572 6.03186 21.4176 6.45401 18.2283C6.87616 15.0389 8.33869 12.0778 10.6148 9.80427C12.891 7.53071 15.8536 6.07163 19.0433 5.65325C22.2331 5.23487 25.4717 5.88058 28.2572 7.49024C31.0426 9.09991 33.2192 11.5836 34.4495 14.5563C35.6798 17.5289 35.8951 20.8245 35.062 23.9319C34.2288 27.0394 32.3938 29.7851 29.8414 31.7435C27.289 33.7019 24.1619 34.7634 20.9448 34.7636V34.7636Z" fill="url(#paint0_linear_79_11)"/>
<path d="M21.0043 8.00202C18.8602 8.0014 16.7552 8.5752 14.908 9.66376C13.0608 10.7523 11.539 12.3159 10.5008 14.1918C9.46258 16.0678 8.9459 18.1876 9.00448 20.3309C9.06306 22.4742 9.69477 24.5627 10.8339 26.3791L11.1194 26.8327L9.90655 31.2589L14.4481 30.0683L14.8854 30.3275C16.7342 31.4225 18.8434 32.0001 20.9921 32H20.9982C24.1807 32.0005 27.2331 30.7368 29.4839 28.4867C31.7347 26.2367 32.9995 23.1846 33 20.002C33.0005 16.8194 31.7368 13.767 29.4868 11.5162C27.2368 9.26533 24.1848 8.00054 21.0023 8L21.0043 8.00202ZM28.0586 25.1521C27.7932 25.5904 27.4399 25.9691 27.0211 26.2642C26.6022 26.5594 26.1268 26.7646 25.6248 26.8671C24.8668 26.9971 24.089 26.9486 23.353 26.7254C22.6551 26.5079 21.9691 26.2538 21.2979 25.9641C18.8069 24.7139 16.6836 22.8377 15.1365 20.5194C14.2925 19.4462 13.7803 18.1499 13.6625 16.7897C13.6528 16.2282 13.7601 15.6709 13.9776 15.1532C14.1951 14.6355 14.5181 14.1688 14.9259 13.7828C15.0465 13.6453 15.1941 13.5343 15.3596 13.4566C15.5251 13.3788 15.7049 13.3362 15.8877 13.3313C16.1266 13.3313 16.3676 13.3313 16.5782 13.3435C16.8009 13.3536 17.0965 13.2584 17.3881 13.963C17.6918 14.6839 18.4126 16.4596 18.5017 16.6398C18.5589 16.7343 18.5916 16.8416 18.5969 16.9519C18.6022 17.0622 18.5799 17.1721 18.532 17.2716C18.4412 17.4882 18.3198 17.6907 18.1716 17.8729C17.9894 18.0835 17.793 18.3427 17.631 18.5047C17.4488 18.6849 17.2625 18.8793 17.4711 19.2397C18.0127 20.1672 18.6889 21.0092 19.4776 21.7383C20.3333 22.4991 21.3152 23.1048 22.3791 23.5282C22.7395 23.7105 22.9501 23.6781 23.1607 23.4371C23.3712 23.1962 24.0617 22.3842 24.3026 22.0238C24.5436 21.6634 24.7825 21.7241 25.1125 21.8436C25.4426 21.963 27.2183 22.8357 27.5787 23.018C27.9391 23.2002 28.18 23.2873 28.2691 23.4371C28.3679 24.0171 28.2947 24.6133 28.0586 25.1521V25.1521Z" fill="url(#paint1_linear_79_11)"/>
<defs>
<linearGradient id="paint0_linear_79_11" x1="20.5" y1="0" x2="20.5" y2="41" gradientUnits="userSpaceOnUse">
<stop stop-color="#0099FF"/>
<stop offset="1" stop-color="#007ACC"/>
</linearGradient>
<linearGradient id="paint1_linear_79_11" x1="21" y1="8" x2="21" y2="32" gradientUnits="userSpaceOnUse">
<stop stop-color="#0099FF"/>
<stop offset="1" stop-color="#007ACC"/>
</linearGradient>
</defs>
</svg>
